<mxfile host="app.diagrams.net" modified="2024-04-09T01:21:28.054Z" agent="Mozilla/5.0 (Macintosh; Intel Mac OS X 10_15_7) AppleWebKit/605.1.15 (KHTML, like Gecko) Version/17.4.1 Safari/605.1.15" version="24.2.0" etag="NOCTcw1ebOfUbMjyc1WS" type="github">
  <diagram name="Page-1" id="xmFwyv37VuwnSiA8l4Wf">
    <mxGraphModel>
      <root>
        <mxCell id="0" />
        <mxCell id="1" parent="0" />
      </root>
    </mxGraphModel>
  </diagram>
</mxfile>
